<svg width="34" height="30" viewBox="0 0 34 30" fill="none" xmlns="http://www.w3.org/2000/svg">
<g clip-path="url(#clip0_65_75)">
<path d="M0 7.5C0 5.43164 1.68164 3.75 3.75 3.75H18.75C20.8184 3.75 22.5 5.43164 22.5 7.5V22.5C22.5 24.5684 20.8184 26.25 18.75 26.25H3.75C1.68164 26.25 0 24.5684 0 22.5V7.5ZM32.7598 5.84766C33.3691 6.17578 33.75 6.80859 33.75 7.5V22.5C33.75 23.1914 33.3691 23.8242 32.7598 24.1523C32.1504 24.4805 31.4121 24.4453 30.832 24.0586L25.207 20.3086L24.375 19.752V18.75V11.25V10.248L25.207 9.69141L30.832 5.94141C31.4062 5.56055 32.1445 5.51953 32.7598 5.84766Z" fill="#03D0CF"/>
</g>
<defs>
<clipPath id="clip0_65_75">
<rect width="33.75" height="30" fill="white"/>
</clipPath>
</defs>
</svg>
