<svg width="38" height="30" viewBox="0 0 38 30" fill="none" xmlns="http://www.w3.org/2000/svg">
<g clip-path="url(#clip0_65_87)">
<path d="M18.0762 7.92773C18.4923 7.55859 18.6563 6.97852 18.4395 6.46289C18.3048 6.15234 18.1583 5.84766 17.9942 5.55469L17.8126 5.23828C17.6368 4.94531 17.4434 4.6582 17.2383 4.38281C16.9044 3.9375 16.3184 3.79102 15.7911 3.9668L14.1387 4.51172C13.5118 3.99609 12.7911 3.57422 12.0176 3.28711L11.6602 1.58789C11.5489 1.04297 11.127 0.609375 10.5762 0.544922C10.1895 0.492188 9.79694 0.46875 9.3985 0.46875H9.35748C8.95905 0.46875 8.56647 0.492187 8.17975 0.539062C7.62897 0.603516 7.20709 1.04297 7.09577 1.58203L6.73834 3.28711C5.95905 3.58008 5.2442 3.99609 4.61725 4.51172L2.95905 3.97266C2.4317 3.79688 1.84577 3.94336 1.51178 4.38867C1.3067 4.66406 1.11334 4.95117 0.931703 5.24414L0.755922 5.55469C0.591859 5.84766 0.445375 6.15234 0.310609 6.46875C0.0938125 6.97852 0.257875 7.55859 0.673891 7.93359L1.97467 9.09375C1.91022 9.48633 1.87506 9.89648 1.87506 10.3125C1.87506 10.7285 1.91022 11.1387 1.97467 11.5371L0.673891 12.6973C0.257875 13.0664 0.0938125 13.6465 0.310609 14.1621C0.445375 14.4727 0.591859 14.7773 0.755922 15.0762L0.931703 15.3809C1.10748 15.6797 1.30084 15.9609 1.51178 16.2363C1.84577 16.6816 2.4317 16.8281 2.95905 16.6523L4.61139 16.1074C5.23834 16.623 5.95905 17.0449 6.73249 17.332L7.08991 19.0371C7.20123 19.582 7.62311 20.0156 8.17389 20.0801C8.56647 20.127 8.96491 20.1504 9.3692 20.1504C9.7735 20.1504 10.1719 20.127 10.5645 20.0801C11.1153 20.0156 11.5372 19.5762 11.6485 19.0371L12.0059 17.332C12.7852 17.0391 13.5001 16.623 14.127 16.1074L15.7794 16.6523C16.3067 16.8281 16.8926 16.6816 17.2266 16.2363C17.4317 15.9609 17.6251 15.6797 17.8008 15.3809L17.9825 15.0645C18.1465 14.7715 18.293 14.4668 18.4278 14.1562C18.6446 13.6465 18.4805 13.0664 18.0645 12.6914L16.7637 11.5312C16.8282 11.1328 16.8633 10.7227 16.8633 10.3066C16.8633 9.89062 16.8282 9.48047 16.7637 9.08203L18.0645 7.92188L18.0762 7.92773ZM6.56256 10.3125C6.56256 9.56658 6.85888 8.85121 7.38633 8.32376C7.91377 7.79632 8.62914 7.5 9.37506 7.5C10.121 7.5 10.8364 7.79632 11.3638 8.32376C11.8912 8.85121 12.1876 9.56658 12.1876 10.3125C12.1876 11.0584 11.8912 11.7738 11.3638 12.3012C10.8364 12.8287 10.121 13.125 9.37506 13.125C8.62914 13.125 7.91377 12.8287 7.38633 12.3012C6.85888 11.7738 6.56256 11.0584 6.56256 10.3125ZM29.5723 29.3262C29.9415 29.7422 30.5216 29.9062 31.0372 29.6895C31.3477 29.5547 31.6524 29.4082 31.9454 29.2441L32.2618 29.0625C32.5548 28.8867 32.8419 28.6934 33.1173 28.4883C33.5626 28.1543 33.709 27.5684 33.5333 27.041L32.9883 25.3887C33.504 24.7617 33.9258 24.041 34.213 23.2676L35.918 22.9102C36.463 22.7988 36.8965 22.377 36.961 21.8262C37.0079 21.4336 37.0313 21.0352 37.0313 20.6309C37.0313 20.2266 37.0079 19.8281 36.961 19.4355C36.8965 18.8848 36.4571 18.4629 35.918 18.3516L34.213 17.9883C33.92 17.209 33.504 16.4941 32.9883 15.8672L33.5333 14.2148C33.709 13.6875 33.5626 13.1016 33.1173 12.7676C32.8419 12.5625 32.5548 12.3691 32.2618 12.1875L31.9512 12.0117C31.6583 11.8477 31.3536 11.7012 31.0372 11.5664C30.5274 11.3496 29.9473 11.5137 29.5723 11.9297L28.4122 13.2305C28.0137 13.166 27.6036 13.1309 27.1876 13.1309C26.7715 13.1309 26.3614 13.166 25.963 13.2305L24.8028 11.9297C24.4337 11.5137 23.8536 11.3496 23.338 11.5664C23.0274 11.7012 22.7227 11.8477 22.4239 12.0117L22.1192 12.1875C21.8204 12.3633 21.5391 12.5566 21.2637 12.7676C20.8184 13.1016 20.6719 13.6875 20.8477 14.2148L21.3926 15.8672C20.877 16.4941 20.4551 17.2148 20.168 17.9883L18.463 18.3398C17.918 18.4512 17.4844 18.873 17.42 19.4238C17.3731 19.8164 17.3497 20.2148 17.3497 20.6191C17.3497 21.0234 17.3731 21.4219 17.42 21.8145C17.4844 22.3652 17.9239 22.7871 18.463 22.8984L20.168 23.2559C20.461 24.0352 20.877 24.75 21.3926 25.377L20.8477 27.0293C20.6719 27.5566 20.8184 28.1426 21.2637 28.4766C21.5391 28.6816 21.8204 28.875 22.1192 29.0508L22.4356 29.2324C22.7286 29.3965 23.0333 29.543 23.3438 29.6777C23.8536 29.8945 24.4337 29.7305 24.8087 29.3145L25.9688 28.0137C26.3673 28.0781 26.7774 28.1133 27.1934 28.1133C27.6094 28.1133 28.0196 28.0781 28.418 28.0137L29.5782 29.3145L29.5723 29.3262ZM27.1876 17.8125C27.5569 17.8125 27.9226 17.8852 28.2639 18.0266C28.6051 18.1679 28.9151 18.3751 29.1763 18.6363C29.4375 18.8974 29.6446 19.2075 29.786 19.5487C29.9273 19.8899 30.0001 20.2557 30.0001 20.625C30.0001 20.9943 29.9273 21.3601 29.786 21.7013C29.6446 22.0425 29.4375 22.3526 29.1763 22.6137C28.9151 22.8749 28.6051 23.0821 28.2639 23.2234C27.9226 23.3648 27.5569 23.4375 27.1876 23.4375C26.8182 23.4375 26.4525 23.3648 26.1113 23.2234C25.77 23.0821 25.46 22.8749 25.1988 22.6137C24.9377 22.3526 24.7305 22.0425 24.5892 21.7013C24.4478 21.3601 24.3751 20.9943 24.3751 20.625C24.3751 20.2557 24.4478 19.8899 24.5892 19.5487C24.7305 19.2075 24.9377 18.8974 25.1988 18.6363C25.46 18.3751 25.77 18.1679 26.1113 18.0266C26.4525 17.8852 26.8182 17.8125 27.1876 17.8125Z" fill="#03D0CF"/>
</g>
<defs>
<clipPath id="clip0_65_87">
<rect width="37.5" height="30" fill="white"/>
</clipPath>
</defs>
</svg>
